<svg version="1.1" id="Layer_1" xmlns="http://www.w3.org/2000/svg" xmlns:xlink="http://www.w3.org/1999/xlink" x="0px" y="0px"
	 width="100%" viewBox="0 0 1024 1024" enable-background="new 0 0 1024 1024" xml:space="preserve">
<path fill="#000000" opacity="1.000000" stroke="none" 
	d="
M278.186401,502.201294 
	C278.847626,508.597870 276.279297,513.205078 271.419769,516.142883 
	C267.499268,518.512939 267.712311,520.771912 269.713959,524.211182 
	C272.015015,528.164856 273.830414,532.401184 276.056610,536.920593 
	C271.290833,537.816956 267.341644,537.368713 263.411102,537.211670 
	C262.014130,537.155884 260.756226,536.438843 260.110992,535.216736 
	C257.389801,530.063049 254.720825,524.879944 252.145615,519.651978 
	C251.110306,517.550110 252.877533,516.751892 254.276077,515.815247 
	C264.366791,509.057465 265.433228,502.653503 258.061981,493.252136 
	C254.105118,488.205597 254.301971,483.715363 258.984375,479.036591 
	C265.600922,472.425262 273.978241,468.559631 282.325836,464.790039 
	C300.413757,456.621918 319.533356,452.328552 339.230835,450.713593 
	C358.298920,449.150208 377.400177,447.988770 396.489258,446.685425 
	C406.841461,445.978577 415.461975,440.794220 424.211700,435.995392 
	C444.214508,425.024872 463.830048,413.272552 485.660675,406.055389 
	C497.586273,402.112793 509.798004,400.321686 522.370544,399.536285 
	C566.049683,396.807617 607.412476,406.262970 647.559692,422.369995 
	C666.752197,430.069977 686.658752,431.433838 706.940918,430.258728 
	C713.972290,429.851318 720.942383,430.105621 727.805603,431.542023 
	C741.520813,434.412567 746.179016,440.918243 743.951904,454.722931 
	C742.826477,461.699097 743.780090,467.582123 748.031189,473.497559 
	C755.527893,483.929108 755.041870,497.879059 747.724792,508.732971 
	C747.009949,509.793365 746.197144,510.469696 744.912231,510.471954 
	C740.448425,510.479767 735.984619,510.475006 731.400391,510.475006 
	C730.520630,506.036072 732.784424,502.840393 734.308594,499.745728 
	C738.345947,491.548462 737.880005,484.430176 731.869324,477.183319 
	C727.482239,471.893982 726.359680,465.231262 727.352234,458.287903 
	C729.082703,446.183105 728.709900,445.747192 716.594543,444.559296 
	C712.100891,444.118683 707.617371,444.669617 703.124695,444.843536 
	C682.150208,445.655579 661.652344,443.521698 641.823486,435.867188 
	C619.297180,427.171356 596.459473,419.477753 572.377930,415.971466 
	C530.258850,409.838928 489.993103,413.662781 453.100830,436.931519 
	C450.920013,438.306976 448.275208,438.992554 445.701324,441.953674 
	C503.566895,437.521698 560.460388,437.732697 617.681458,442.861847 
	C616.486084,444.959015 615.021240,444.387390 613.855225,444.382050 
	C588.691101,444.266815 563.544373,445.151672 538.429382,446.433685 
	C500.526886,448.368500 462.810211,452.286713 425.222900,457.700226 
	C404.656494,460.662292 383.945709,462.656921 363.117645,463.425934 
	C340.118134,464.275146 317.283661,466.679810 295.549683,475.139191 
	C289.012115,477.683777 282.672119,480.637451 276.742188,484.383362 
	C271.423737,487.742981 271.050659,490.152100 275.239899,494.576202 
	C277.228943,496.676727 278.023560,499.033356 278.186401,502.201294 
z"/>
<path fill="#000000" opacity="1.000000" stroke="none" 
	d="
M608.351807,524.776001 
	C608.216553,534.861267 607.950134,544.523132 608.121704,554.177185 
	C608.203857,558.800171 606.419495,560.313782 601.940674,560.227234 
	C586.667419,559.931824 589.845154,561.544983 589.640564,548.250854 
	C589.402222,532.766113 589.403442,517.277710 589.239197,501.791565 
	C589.211853,499.216278 589.907471,497.858215 592.829346,497.649109 
	C601.220032,497.048645 602.628723,497.410217 605.826782,502.128479 
	C608.067261,502.626373 609.423157,500.814514 611.077759,499.883575 
	C625.898987,491.545135 645.313477,496.030670 653.355469,509.758820 
	C656.199890,514.614258 657.325012,519.943787 657.319702,525.541321 
	C657.310242,535.475342 657.317017,545.409363 658.398376,555.781311 
	C665.166504,547.025879 671.947571,538.280457 678.692322,529.507019 
	C680.138733,527.625488 678.432922,526.431335 677.495300,525.176270 
	C672.112305,517.970459 666.663940,510.813385 661.292603,503.598999 
	C660.222534,502.161804 658.765747,500.908569 658.441162,498.009430 
	C664.840210,498.009430 671.165527,497.858887 677.474609,498.112823 
	C679.099304,498.178223 679.883667,500.269501 680.852234,501.603729 
	C684.157349,506.157043 687.428406,510.735138 691.317993,516.146118 
	C694.835510,511.309814 698.146484,507.239380 700.904053,502.823395 
	C703.395508,498.833374 706.485657,497.047058 711.202209,497.648224 
	C715.240173,498.162933 719.416870,497.082611 723.384033,498.267609 
	C723.863586,500.538727 722.307373,501.596313 721.376099,502.866669 
	C716.157288,509.986023 711.018555,517.173096 705.536133,524.086121 
	C703.096802,527.162048 703.239868,529.393372 705.640137,532.354797 
	C711.407043,539.469666 716.926331,546.787231 722.456421,554.090393 
	C723.600647,555.601440 725.384155,556.869690 725.173828,559.984985 
	C719.118774,559.984985 713.058716,560.091736 707.006165,559.924744 
	C704.991516,559.869202 704.100525,557.866333 703.029663,556.406677 
	C699.203369,551.191162 695.405151,545.955139 691.294434,540.312561 
	C686.173767,545.071472 682.957764,550.728760 679.203308,555.888000 
	C676.865417,559.100708 674.307495,560.345337 670.425598,560.249329 
	C661.601624,560.030945 652.767029,560.062256 643.940369,560.210510 
	C640.051697,560.275879 638.626099,558.743469 638.705322,554.879639 
	C638.879395,546.387268 638.777954,537.888428 638.727356,529.392578 
	C638.675659,520.716553 634.152283,514.798462 626.625183,513.432556 
	C618.007507,511.868744 611.670105,515.664917 608.351807,524.776001 
z"/>
<path fill="#000000" opacity="1.000000" stroke="none" 
	d="
M395.892578,501.552521 
	C402.330048,496.685425 409.297302,495.137970 416.898712,495.963806 
	C420.051025,496.306274 421.576324,497.749847 421.435242,501.155457 
	C421.306915,504.252808 420.945953,507.459167 422.143158,510.543304 
	C424.350250,510.459015 424.866150,508.589417 425.914001,507.481049 
	C442.408051,490.035217 473.344879,492.492249 486.125702,512.305969 
	C494.474915,525.249512 491.549255,543.212952 479.520538,552.861084 
	C459.764832,568.706970 430.026001,562.816406 420.253296,541.103088 
	C417.115936,534.132324 416.686798,526.896545 418.979431,519.665283 
	C420.159668,515.942627 418.641235,514.855957 415.409271,514.410278 
	C402.790710,512.670410 395.570374,518.834778 395.440063,531.621155 
	C395.360291,539.450867 395.272400,547.284851 395.455475,555.110718 
	C395.540802,558.758301 394.227203,560.227539 390.562561,560.191284 
	C374.560059,560.032898 377.144379,561.751282 377.007538,547.193115 
	C376.874420,533.033020 376.939392,518.870605 376.985107,504.709503 
	C377.007690,497.717072 377.076752,497.711884 383.838531,497.691895 
	C387.591431,497.680786 391.618774,496.916260 393.429718,501.724426 
	C393.780548,502.655853 394.869080,502.160858 395.892578,501.552521 
M453.604523,512.469360 
	C448.023682,513.117249 442.749420,514.466248 439.238007,519.360474 
	C435.253143,524.914612 434.932159,530.971191 438.236053,536.736450 
	C442.416382,544.031189 449.548431,545.438538 457.284088,544.681335 
	C464.173950,544.006897 469.046539,540.451599 471.622955,533.959839 
	C472.894531,530.755859 472.878143,527.552368 471.781342,524.222717 
	C468.997803,515.772400 462.313599,513.266724 453.604523,512.469360 
z"/>
<path fill="#000000" opacity="1.000000" stroke="none" 
	d="
M300.257080,518.773560 
	C301.120483,530.116943 308.271179,538.968628 318.841339,542.204834 
	C330.623169,545.812012 343.791840,542.681580 350.145325,533.831360 
	C352.995483,529.861145 355.958221,528.413696 360.501007,528.865051 
	C362.975433,529.110779 365.496704,528.843994 367.994537,528.904541 
	C372.670715,529.017944 373.389832,529.981995 371.532166,534.332764 
	C364.765686,550.180054 352.211853,558.745422 335.633026,561.086365 
	C323.544800,562.793335 311.717438,561.150879 301.067993,554.266968 
	C285.308838,544.080139 277.899506,526.541809 281.709900,508.024017 
	C285.284454,490.652313 300.413055,476.574677 318.571533,473.723145 
	C341.252991,470.161316 361.891479,480.405609 370.461029,499.496857 
	C371.198486,501.139740 372.198029,502.735443 371.733795,505.316772 
	C365.861694,506.494720 359.802338,506.083740 353.757141,505.502197 
	C352.283539,505.360443 351.837189,503.795349 351.088379,502.714752 
	C344.164368,492.722626 331.742249,488.794708 319.103760,492.590363 
	C307.267853,496.144989 300.381866,505.544586 300.257080,518.773560 
z"/>
<path fill="#000000" opacity="1.000000" stroke="none" 
	d="
M549.392273,556.585571 
	C545.788025,547.265930 542.337036,538.320312 538.400757,528.117065 
	C534.643860,537.942627 531.001770,546.314453 528.288940,554.977295 
	C526.547363,560.538635 522.805603,560.218506 518.554626,560.202942 
	C514.479004,560.187988 511.018768,560.463013 509.190094,555.187012 
	C503.249359,538.047058 496.707428,521.115601 490.419556,504.095551 
	C489.797150,502.410706 488.813416,500.794739 489.164276,498.251282 
	C494.391418,497.196503 499.799072,497.666901 505.162415,497.913910 
	C507.443054,498.018951 507.723602,500.284058 508.317841,501.950592 
	C511.279846,510.257904 514.167114,518.591858 517.110596,526.905823 
	C517.704895,528.584412 518.428650,530.217163 519.655457,533.272583 
	C523.645081,522.635620 527.446350,513.466980 530.470337,504.048767 
	C532.086853,499.013855 534.572632,497.232330 539.803711,497.539520 
	C543.471863,497.754944 545.109741,499.110413 546.252014,502.355408 
	C549.829285,512.518555 553.628174,522.603699 558.417419,532.781372 
	C561.226807,524.695190 563.913147,516.563599 566.873474,508.533020 
	C571.715210,495.398895 568.594421,498.010468 582.401245,497.715363 
	C584.039429,497.680359 585.742371,497.440399 587.303406,498.314514 
	C588.433716,499.814972 587.457520,501.190765 586.970886,502.521149 
	C580.567444,520.027039 574.129089,537.520203 567.690979,555.013428 
	C566.773132,557.507263 566.084229,560.582092 562.551270,560.049744 
	C558.151733,559.387024 552.712646,562.801086 549.392273,556.585571 
z"/>
</svg>